<svg preserveAspectRatio="none" width="100%" height="100%" overflow="visible" style="display: block;" viewBox="0 0 101.692 104" fill="none" xmlns="http://www.w3.org/2000/svg">
<path id="Vector" d="M86.5303 0.642578C91.5813 4.42115 96.0637 8.96942 99.8018 14.1357C91.2437 24.2644 86.5293 36.6196 86.5293 50.5537C86.5293 64.6273 91.5923 77.9188 100.852 88.248L100.945 88.3525C97.0583 94.1305 92.2861 99.207 86.7979 103.355C76.8031 94.4905 64.1775 89.6241 50.793 89.624C37.4089 89.624 24.7827 94.4892 14.7881 103.354C9.31512 99.2128 4.53826 94.1513 0.645508 88.3965C0.743238 88.2816 0.8294 88.1633 0.904297 88.0488C10.0547 77.7433 15.0566 64.1922 15.0566 50.5537C15.0566 37.0397 10.3525 24.2744 1.78223 14.1357C5.5103 8.96954 9.99288 4.42123 15.0537 0.642578C25.0047 9.35766 37.525 14.1484 50.793 14.1484C64.0605 14.1484 76.5795 9.3571 86.5303 0.642578Z" stroke="var(--stroke-0, #FFF9ED)"/>
</svg>
