<svg preserveAspectRatio="none" width="100%" height="100%" overflow="visible" style="display: block;" viewBox="0 0 104 104" fill="none" xmlns="http://www.w3.org/2000/svg">
<path id="Vector" d="M102.836 15.3916C102.328 27.2288 97.4351 38.3598 89.0576 46.7373C87.2787 48.5162 85.3726 50.1373 83.3613 51.5957L82.8037 52L83.3623 52.4053C85.37 53.8603 87.2788 55.4839 89.0576 57.2627C97.3771 65.5822 102.257 76.6169 102.822 88.3623L102.833 88.6045L103.473 103.474L88.6016 102.836C76.7676 102.324 65.6362 97.4321 57.2588 89.0547C55.48 87.2759 53.8597 85.3696 52.4014 83.3584L51.9971 82.7998L51.5918 83.3584C50.1367 85.3663 48.5133 87.2758 46.7344 89.0547C38.3568 97.4322 27.2286 102.328 15.3916 102.836L0.522461 103.476L1.16113 88.6045C1.67272 76.7706 6.565 65.6401 14.9424 57.2627C16.7213 55.4838 18.6274 53.8627 20.6387 52.4043L21.1963 52L20.6377 51.5947C18.63 50.1397 16.7212 48.5161 14.9424 46.7373C6.56489 38.3598 1.6695 27.2324 1.16113 15.3955L0.522461 0.523438L15.3955 1.16699C27.2326 1.67536 38.3638 6.5679 46.7412 14.9453C48.52 16.7241 50.1403 18.6304 51.5986 20.6416L52.0029 21.2002L52.4082 20.6416C53.8633 18.6337 55.4867 16.7242 57.2656 14.9453C65.6432 6.56775 76.7714 1.67236 88.6084 1.16406L103.476 0.523438L102.836 15.3916Z" stroke="var(--stroke-0, #FFF9ED)"/>
</svg>
