<svg preserveAspectRatio="none" width="100%" height="100%" overflow="visible" style="display: block;" viewBox="0 0 183.764 138.004" fill="none" xmlns="http://www.w3.org/2000/svg">
<g id="Vector">
<path d="M45.8778 123.575C45.8778 114.81 52.4269 107.806 61.2367 107.806C69.0602 107.806 72.296 112.804 73.3266 114.899L69.7805 116.539C68.4175 113.126 65.3922 109.369 60.3391 109.369C54.8537 109.369 49.446 113.779 49.446 121.359C49.446 129.548 55.5519 135.122 62.5997 135.122C66.3674 135.122 69.1932 133.604 71.2432 131.72L71.9414 132.463C70.0575 135.089 66.2012 137.992 60.7602 137.992C52.9366 137.992 45.8888 132.252 45.8888 123.575H45.8778Z" fill="var(--fill-0, #FFF9ED)"/>
<path d="M77.6482 108.46H81.8149V123.741L97.0408 108.46H98.703L86.868 120.428L98.9911 137.35H94.2815L83.9979 123.176L81.8259 125.348V137.35H77.6593V108.46H77.6482Z" fill="var(--fill-0, #FFF9ED)"/>
<path d="M160.759 131.1L164.571 130.069C165.469 134.103 169.093 136.718 173.115 136.718C177.138 136.718 179.698 134.568 179.698 131.355C179.698 122.501 161.901 125.382 161.901 115.564C161.901 110.931 166.067 107.806 172.406 107.806C177.47 107.806 182.113 110.1 183.532 114.012L179.753 115.076C178.711 111.341 175.198 109.092 171.841 109.092C168.151 109.092 165.591 111.02 165.591 113.935C165.591 121.913 183.764 119.231 183.764 129.637C183.764 134.801 179.409 138.004 172.55 138.004C166.777 138.004 162 135.399 160.759 131.111V131.1Z" fill="var(--fill-0, #FFF9ED)"/>
<path d="M114.117 107.806C105.429 107.806 99.1684 115.22 99.1684 123.287C99.1684 131.355 105.396 137.992 113.995 137.992C122.595 137.992 128.944 130.579 128.944 122.467C128.944 114.356 122.683 107.806 114.117 107.806ZM115.403 136.286C108.455 136.208 103.113 129.061 103.036 120.783C102.969 114.865 106.538 109.458 112.666 109.524C119.614 109.602 124.988 116.749 125.077 125.027C125.143 130.945 121.575 136.352 115.414 136.286H115.403Z" fill="var(--fill-0, #FFF9ED)"/>
<path d="M133.276 108.46H136.978L154.254 133.039H154.331V108.46H156.204V137.338H152.47L135.16 112.76H135.072L135.16 137.338H133.276V108.46Z" fill="var(--fill-0, #FFF9ED)"/>
<path d="M12.7326 122.489V122.412C16.7774 122.245 20.3678 119.564 20.3678 115.608C20.3678 110.399 15.7024 108.46 10.0952 108.46H0V137.338H11.2034C17.143 137.338 21.5978 134.901 21.5978 129.703C21.5978 124.916 17.5974 122.644 12.7215 122.478L12.7326 122.489ZM4.1888 109.934H9.58548C14.0956 109.934 16.5779 111.751 16.5779 115.929C16.5779 120.772 13.1315 121.891 9.55223 121.891H4.1888V109.934ZM10.5939 135.765H4.1888V123.198H9.71845C14.4613 123.198 17.6085 124.916 17.6085 129.482C17.6085 134.335 14.8381 135.765 10.5939 135.765Z" fill="var(--fill-0, #FFF9ED)"/>
<path d="M25.8315 108.46H43.2073V109.934H30.0314V121.88H41.3567V123.187H30.0314V135.754H43.2073V137.338H25.8315V108.46Z" fill="var(--fill-0, #FFF9ED)"/>
<path d="M79.8591 24.3357C77.9444 22.2377 76.8925 19.537 76.8925 16.6709C76.8925 13.8047 77.9444 11.1099 79.8591 9.00609C81.7738 11.104 82.8258 13.8047 82.8258 16.6709C82.8258 19.537 81.7738 22.2318 79.8591 24.3357Z" fill="var(--fill-0, #FFF9ED)"/>
<path d="M103.902 24.3357C101.987 22.2377 100.936 19.537 100.936 16.6709C100.936 13.8047 101.987 11.1099 103.902 9.00609C105.817 11.104 106.869 13.8047 106.869 16.6709C106.869 19.537 105.817 22.2318 103.902 24.3357Z" fill="var(--fill-0, #FFF9ED)"/>
<path d="M91.8767 14.1004C90.1156 12.1679 89.1464 9.68588 89.1464 7.05018C89.1464 4.41449 90.1097 1.93245 91.8767 0C93.6377 1.93245 94.6069 4.41449 94.6069 7.05018C94.6069 9.68588 93.6437 12.1679 91.8767 14.1004Z" fill="var(--fill-0, #FFF9ED)"/>
<path d="M79.8585 49.7711C77.5951 47.2891 76.3541 44.0979 76.3541 40.7176C76.3541 37.3373 77.5951 34.1461 79.8585 31.664C82.1219 34.1461 83.3629 37.3373 83.3629 40.7176C83.3629 44.0979 82.1219 47.2891 79.8585 49.7711Z" fill="var(--fill-0, #FFF9ED)"/>
<path d="M103.906 49.7711C101.643 47.2891 100.402 44.0979 100.402 40.7176C100.402 37.3373 101.643 34.1461 103.906 31.664C106.17 34.1461 107.411 37.3373 107.411 40.7176C107.411 44.0979 106.17 47.2891 103.906 49.7711Z" fill="var(--fill-0, #FFF9ED)"/>
<path d="M91.8763 31.9188C88.762 31.9188 85.8308 30.7782 83.5438 28.6921C85.8249 26.606 88.762 25.4654 91.8763 25.4654C94.9907 25.4654 97.9219 26.606 100.209 28.6921C97.9278 30.7782 94.9907 31.9188 91.8763 31.9188Z" fill="var(--fill-0, #FFF9ED)"/>
<path d="M115.924 31.9188C112.81 31.9188 109.879 30.7782 107.592 28.6921C109.873 26.606 112.81 25.4654 115.924 25.4654C119.038 25.4654 121.97 26.606 124.257 28.6921C121.976 30.7782 119.038 31.9188 115.924 31.9188Z" fill="var(--fill-0, #FFF9ED)"/>
<path d="M67.8363 31.9188C64.7219 31.9188 61.7907 30.7782 59.5037 28.6921C61.7848 26.606 64.7219 25.4654 67.8363 25.4654C70.9507 25.4654 73.8818 26.606 76.1689 28.6921C73.8877 30.7782 70.9507 31.9188 67.8363 31.9188Z" fill="var(--fill-0, #FFF9ED)"/>
<path d="M125.86 44.2217C122.48 44.2217 119.289 42.9807 116.807 40.7173C119.289 38.4539 122.48 37.2129 125.86 37.2129C129.241 37.2129 132.432 38.4539 134.914 40.7173C132.432 42.9807 129.241 44.2217 125.86 44.2217Z" fill="var(--fill-0, #FFF9ED)"/>
<path d="M57.904 44.2217C54.5237 44.2217 51.3325 42.9807 48.8504 40.7173C51.3325 38.4539 54.5237 37.2129 57.904 37.2129C61.2843 37.2129 64.4755 38.4539 66.9575 40.7173C64.4755 42.9807 61.2843 44.2217 57.904 44.2217Z" fill="var(--fill-0, #FFF9ED)"/>
<path d="M79.8591 57.0985C77.9444 59.1964 76.8925 61.8971 76.8925 64.7633C76.8925 67.6294 77.9444 70.3242 79.8591 72.4281C81.7738 70.3301 82.8258 67.6294 82.8258 64.7633C82.8258 61.8971 81.7738 59.2023 79.8591 57.0985Z" fill="var(--fill-0, #FFF9ED)"/>
<path d="M103.902 57.0985C101.987 59.1964 100.936 61.8971 100.936 64.7633C100.936 67.6294 101.987 70.3242 103.902 72.4281C105.817 70.3301 106.869 67.6294 106.869 64.7633C106.869 61.8971 105.817 59.2023 103.902 57.0985Z" fill="var(--fill-0, #FFF9ED)"/>
<path d="M91.8767 67.3285C90.1156 69.261 89.1464 71.743 89.1464 74.3787C89.1464 77.0144 90.1097 79.4964 91.8767 81.4289C93.6377 79.4964 94.6069 77.0144 94.6069 74.3787C94.6069 71.743 93.6437 69.261 91.8767 67.3285Z" fill="var(--fill-0, #FFF9ED)"/>
<path d="M79.8585 31.6581C77.5951 34.1402 76.3541 37.3314 76.3541 40.7117C76.3541 44.092 77.5951 47.2832 79.8585 49.7652C82.1219 47.2832 83.3629 44.092 83.3629 40.7117C83.3629 37.3314 82.1219 34.1402 79.8585 31.6581Z" fill="var(--fill-0, #FFF9ED)"/>
<path d="M103.906 31.6581C101.643 34.1402 100.402 37.3314 100.402 40.7117C100.402 44.092 101.643 47.2832 103.906 49.7652C106.17 47.2832 107.411 44.092 107.411 40.7117C107.411 37.3314 106.17 34.1402 103.906 31.6581Z" fill="var(--fill-0, #FFF9ED)"/>
<path d="M91.8763 49.5169C88.762 49.5169 85.8308 50.6575 83.5438 52.7436C85.8249 54.8297 88.762 55.9702 91.8763 55.9702C94.9907 55.9702 97.9219 54.8297 100.209 52.7436C97.9278 50.6575 94.9907 49.5169 91.8763 49.5169Z" fill="var(--fill-0, #FFF9ED)"/>
<path d="M115.924 49.5169C112.81 49.5169 109.879 50.6575 107.592 52.7436C109.873 54.8297 112.81 55.9702 115.924 55.9702C119.038 55.9702 121.97 54.8297 124.257 52.7436C121.976 50.6575 119.038 49.5169 115.924 49.5169Z" fill="var(--fill-0, #FFF9ED)"/>
<path d="M67.8363 49.5169C64.7219 49.5169 61.7907 50.6575 59.5037 52.7436C61.7848 54.8297 64.7219 55.9702 67.8363 55.9702C70.9507 55.9702 73.8818 54.8297 76.1689 52.7436C73.8877 50.6575 70.9507 49.5169 67.8363 49.5169Z" fill="var(--fill-0, #FFF9ED)"/>
<path d="M125.86 37.2129C122.48 37.2129 119.289 38.4539 116.807 40.7173C119.289 42.9807 122.48 44.2217 125.86 44.2217C129.241 44.2217 132.432 42.9807 134.914 40.7173C132.432 38.4539 129.241 37.2129 125.86 37.2129Z" fill="var(--fill-0, #FFF9ED)"/>
<path d="M57.904 37.2129C54.5237 37.2129 51.3325 38.4539 48.8504 40.7173C51.3325 42.9807 54.5237 44.2217 57.904 44.2217C61.2843 44.2217 64.4755 42.9807 66.9575 40.7173C64.4755 38.4539 61.2843 37.2129 57.904 37.2129Z" fill="var(--fill-0, #FFF9ED)"/>
</g>
</svg>
