<svg width="140" height="140" viewBox="0 0 240 240" fill="none" xmlns="http://www.w3.org/2000/svg">
  <!-- Left flourish - positioned to the left of center -->
  <g transform="translate(18, 68)">
    <path d="M86.5303 0.642578C91.5813 4.42115 96.0637 8.96942 99.8018 14.1357C91.2437 24.2644 86.5293 36.6196 86.5293 50.5537C86.5293 64.6273 91.5923 77.9188 100.852 88.248L100.945 88.3525C97.0583 94.1305 92.2861 99.207 86.7979 103.355C76.8031 94.4905 64.1775 89.6241 50.793 89.624C37.4089 89.624 24.7827 94.4892 14.7881 103.354C9.31512 99.2128 4.53826 94.1513 0.645508 88.3965C0.743239 88.2816 0.829401 88.1633 0.904297 88.0488C10.0547 77.7433 15.0566 64.1922 15.0566 50.5537C15.0566 37.0397 10.3525 24.2744 1.78223 14.1357C5.5103 8.96954 9.99288 4.42123 15.0537 0.642578C25.0047 9.35766 37.525 14.1484 50.793 14.1484C64.0605 14.1484 76.5795 9.3571 86.5303 0.642578Z" stroke="#FFF9ED"/>
  </g>
  <!-- Center diamond -->
  <g transform="translate(55, 55)">
    <path d="M79.6438 6.81231L122 49.1683C130.415 57.584 130.415 71.2286 122 79.6443L79.6438 122C71.228 130.416 57.5835 130.416 49.1677 122L6.81176 79.6443C-1.60392 71.2286 -1.60391 57.584 6.81176 49.1683L49.1677 6.81231C57.5835 -1.60338 71.228 -1.60338 79.6438 6.81231Z" stroke="#FFF9ED"/>
  </g>
  <!-- Right flourish - positioned to the right of center -->
  <g transform="translate(120, 68)">
    <path d="M102.836 15.3916C102.328 27.2288 97.4351 38.3598 89.0576 46.7373C87.2787 48.5162 85.3726 50.1373 83.3613 51.5957L82.8037 52L83.3623 52.4053C85.37 53.8603 87.2788 55.4839 89.0576 57.2627C97.3768 65.5819 102.257 76.6163 102.822 88.3613L102.833 88.6045L103.473 103.474L88.6016 102.836C76.7676 102.324 65.6362 97.4321 57.2588 89.0547C55.48 87.2759 53.8597 85.3696 52.4014 83.3584L51.9971 82.7998L51.5918 83.3584C50.1367 85.3663 48.5133 87.2758 46.7344 89.0547C38.3568 97.4322 27.2286 102.328 15.3916 102.836L0.522461 103.476L1.16113 88.6045C1.67272 76.7706 6.565 65.6401 14.9424 57.2627C16.7213 55.4838 18.6274 53.8637 20.6387 52.4053L21.1963 52L20.6377 51.5947C18.63 50.1397 16.7212 48.5161 14.9424 46.7373C6.56489 38.3598 1.6695 27.2324 1.16113 15.3955L0.522461 0.523438L15.3955 1.16699C27.2326 1.67536 38.3638 6.5679 46.7412 14.9453C48.52 16.7241 50.1403 18.6304 51.5986 20.6416L52.0029 21.2002L52.4082 20.6416C53.8633 18.6337 55.4867 16.7242 57.2656 14.9453C65.6432 6.56775 76.7714 1.67236 88.6084 1.16406L103.476 0.523438L102.836 15.3916Z" stroke="#FFF9ED"/>
  </g>
</svg>
