<svg width="32" height="32" viewBox="75 0 150 135" fill="none" xmlns="http://www.w3.org/2000/svg">
<path d="M130.372 39.7286C127.246 36.3037 125.529 31.8947 125.529 27.2156C125.529 22.5365 127.246 18.1372 130.372 14.7027C133.498 18.1276 135.215 22.5365 135.215 27.2156C135.215 31.8947 133.498 36.294 130.372 39.7286Z" fill="#5A3E36"/>
<path d="M169.623 39.7286C166.497 36.3037 164.78 31.8947 164.78 27.2156C164.78 22.5365 166.497 18.1372 169.623 14.7027C172.749 18.1276 174.466 22.5365 174.466 27.2156C174.466 31.8947 172.749 36.294 169.623 39.7286Z" fill="#5A3E36"/>
<path d="M149.991 23.0192C147.116 19.8644 145.534 15.8124 145.534 11.5096C145.534 7.20677 147.106 3.15477 149.991 0C152.866 3.15477 154.448 7.20677 154.448 11.5096C154.448 15.8124 152.876 19.8644 149.991 23.0192Z" fill="#5A3E36"/>
<path d="M130.371 81.2526C126.676 77.2006 124.65 71.9909 124.65 66.4724C124.65 60.954 126.676 55.7443 130.371 51.6923C134.066 55.7443 136.092 60.954 136.092 66.4724C136.092 71.9909 134.066 77.2006 130.371 81.2526Z" fill="#5A3E36"/>
<path d="M169.63 81.2526C165.934 77.2006 163.908 71.9909 163.908 66.4724C163.908 60.954 165.934 55.7443 169.63 51.6923C173.325 55.7443 175.351 60.954 175.351 66.4724C175.351 71.9909 173.325 77.2006 169.63 81.2526Z" fill="#5A3E36"/>
<path d="M149.99 52.1082C144.906 52.1082 140.121 50.2462 136.387 46.8406C140.111 43.435 144.906 41.573 149.99 41.573C155.075 41.573 159.86 43.435 163.594 46.8406C159.87 50.2462 155.075 52.1082 149.99 52.1082Z" fill="#5A3E36"/>
<path d="M189.249 52.1082C184.165 52.1082 179.379 50.2462 175.646 46.8406C179.37 43.435 184.165 41.573 189.249 41.573C194.333 41.573 199.118 43.435 202.852 46.8406C199.128 50.2462 194.333 52.1082 189.249 52.1082Z" fill="#5A3E36"/>
<path d="M110.744 52.1082C105.66 52.1082 100.875 50.2462 97.1413 46.8406C100.865 43.435 105.66 41.573 110.744 41.573C115.829 41.573 120.614 43.435 124.348 46.8406C120.624 50.2462 115.829 52.1082 110.744 52.1082Z" fill="#5A3E36"/>
<path d="M205.47 72.1931C199.951 72.1931 194.742 70.1671 190.69 66.472C194.742 62.777 199.951 60.751 205.47 60.751C210.988 60.751 216.198 62.777 220.25 66.472C216.198 70.1671 210.988 72.1931 205.47 72.1931Z" fill="#5A3E36"/>
<path d="M94.5297 72.1931C89.0113 72.1931 83.8016 70.1671 79.7496 66.472C83.8016 62.777 89.0113 60.751 94.5297 60.751C100.048 60.751 105.258 62.777 109.31 66.472C105.258 70.1671 100.048 72.1931 94.5297 72.1931Z" fill="#5A3E36"/>
<path d="M130.372 93.2147C127.246 96.6396 125.529 101.049 125.529 105.728C125.529 110.407 127.246 114.806 130.372 118.241C133.498 114.816 135.215 110.407 135.215 105.728C135.215 101.049 133.498 96.6493 130.372 93.2147Z" fill="#5A3E36"/>
<path d="M169.623 93.2147C166.497 96.6396 164.78 101.049 164.78 105.728C164.78 110.407 166.497 114.806 169.623 118.241C172.749 114.816 174.466 110.407 174.466 105.728C174.466 101.049 172.749 96.6493 169.623 93.2147Z" fill="#5A3E36"/>
<path d="M149.991 109.915C147.116 113.07 145.534 117.122 145.534 121.425C145.534 125.728 147.106 129.78 149.991 132.935C152.866 129.78 154.448 125.728 154.448 121.425C154.448 117.122 152.876 113.07 149.991 109.915Z" fill="#5A3E36"/>
<path d="M130.371 51.6827C126.676 55.7347 124.65 60.9444 124.65 66.4628C124.65 71.9813 126.676 77.191 130.371 81.243C134.066 77.191 136.092 71.9813 136.092 66.4628C136.092 60.9444 134.066 55.7347 130.371 51.6827Z" fill="#5A3E36"/>
<path d="M169.63 51.6827C165.934 55.7347 163.908 60.9444 163.908 66.4628C163.908 71.9813 165.934 77.191 169.63 81.243C173.325 77.191 175.351 71.9813 175.351 66.4628C175.351 60.9444 173.325 55.7347 169.63 51.6827Z" fill="#5A3E36"/>
<path d="M149.99 80.8376C144.906 80.8376 140.121 82.6996 136.387 86.1052C140.111 89.5108 144.906 91.3728 149.99 91.3728C155.075 91.3728 159.86 89.5108 163.594 86.1052C159.87 82.6996 155.075 80.8376 149.99 80.8376Z" fill="#5A3E36"/>
<path d="M189.249 80.8376C184.165 80.8376 179.379 82.6996 175.646 86.1052C179.37 89.5108 184.165 91.3728 189.249 91.3728C194.333 91.3728 199.118 89.5108 202.852 86.1052C199.128 82.6996 194.333 80.8376 189.249 80.8376Z" fill="#5A3E36"/>
<path d="M110.744 80.8376C105.66 80.8376 100.875 82.6996 97.1413 86.1052C100.865 89.5108 105.66 91.3728 110.744 91.3728C115.829 91.3728 120.614 89.5108 124.348 86.1052C120.624 82.6996 115.829 80.8376 110.744 80.8376Z" fill="#5A3E36"/>
<path d="M205.47 60.751C199.951 60.751 194.742 62.777 190.69 66.472C194.742 70.1671 199.951 72.1931 205.47 72.1931C210.988 72.1931 216.198 70.1671 220.25 66.472C216.198 62.777 210.988 60.751 205.47 60.751Z" fill="#5A3E36"/>
<path d="M94.5297 60.751C89.0113 60.751 83.8016 62.777 79.7496 66.472C83.8016 70.1671 89.0113 72.1931 94.5297 72.1931C100.048 72.1931 105.258 70.1671 109.31 66.472C105.258 62.777 100.048 60.751 94.5297 60.751Z" fill="#5A3E36"/>
</svg>
